<?xml version="1.0" encoding="UTF-8" standalone="no"?>
<svg
   xmlns:dc="http://purl.org/dc/elements/1.1/"
   xmlns:cc="http://creativecommons.org/ns#"
   xmlns:rdf="http://www.w3.org/1999/02/22-rdf-syntax-ns#"
   xmlns:svg="http://www.w3.org/2000/svg"
   xmlns="http://www.w3.org/2000/svg"
   id="svg8"
   version="1.1"
   viewBox="0 0 185.72792 111.3531"
   height="111.3531mm"
   width="185.72792mm">
  <defs
     id="defs2" />
  <metadata
     id="metadata5">
    <rdf:RDF>
      <cc:Work
         rdf:about="">
        <dc:format>image/svg+xml</dc:format>
        <dc:type
           rdf:resource="http://purl.org/dc/dcmitype/StillImage" />
        <dc:title></dc:title>
      </cc:Work>
    </rdf:RDF>
  </metadata>
  <g
     transform="translate(-70.678859,-60.740121)"
     id="layer1">
    <path
       style="fill:#66b7be;fill-opacity:1;stroke-width:0.310614"
       d="m 97.860355,171.16125 c -0.512511,-0.23114 -3.971973,-3.48273 -7.687694,-7.22576 -6.859621,-6.91005 -6.936223,-7.01321 -6.7586,-9.10282 0.09427,-1.10929 0.207958,-1.28058 4.318743,-6.50708 l 3.717095,-4.72597 -1.620988,-3.31362 c -0.89154,-1.82249 -2.100415,-4.73621 -2.68637,-6.47492 l -1.065392,-3.16132 -2.494963,-0.33799 c -1.372235,-0.1859 -4.207828,-0.52978 -6.301316,-0.76417 -4.120589,-0.46135 -4.994977,-0.81948 -5.991668,-2.45409 -0.564976,-0.9266 -0.605231,-1.62275 -0.605231,-10.46634 0,-12.81152 -0.522101,-12.0456 8.986933,-13.18375 3.461591,-0.41432 6.325241,-0.79738 6.363665,-0.85125 0.03838,-0.0539 0.602436,-1.63548 1.253357,-3.514689 0.65091,-1.879215 1.85839,-4.767273 2.68327,-6.417891 l 1.499798,-3.001147 -3.778035,-4.764205 c -4.077832,-5.14225 -4.742418,-6.399852 -4.263836,-8.068575 0.443011,-1.544668 13.394366,-14.456669 14.914286,-14.868961 1.764541,-0.478649 2.798111,0.03571 7.415261,3.690278 2.3754,1.880176 4.59946,3.593718 4.94237,3.807868 0.54065,0.337638 1.07944,0.17284 4.05578,-1.240496 1.88777,-0.896423 4.6241,-2.032711 6.08075,-2.525087 l 2.64843,-0.895227 -0.004,10.774137 -0.004,10.774136 -1.93766,1.05856 c -7.57142,4.136353 -13.62228,12.001778 -16.00358,20.802799 -0.72616,2.68386 -0.80839,3.54065 -0.80839,8.4235 0,4.88285 0.0822,5.73963 0.80839,8.4235 2.37033,8.76053 8.44204,16.64244 16.03287,20.81289 l 1.90837,1.04847 0.004,10.77413 0.004,10.77414 -2.67076,-0.90278 c -1.46891,-0.49652 -4.14262,-1.60588 -5.94158,-2.46521 -1.79896,-0.85935 -3.40338,-1.56244 -3.56539,-1.56244 -0.162,0 -2.44408,1.68527 -5.07129,3.74505 -4.18877,3.28409 -5.97194,4.36386 -7.132114,4.31875 -0.171969,-0.007 -0.732001,-0.20128 -1.244511,-0.43242 z"
       id="path917" />
    <path
       style="fill:#008791;fill-opacity:1;stroke-width:0.264583"
       d="m 134.91811,171.7453 c -0.82588,-0.16963 -1.58986,-0.3977 -1.69774,-0.50685 -0.10788,-0.10914 -0.3724,-0.19844 -0.58782,-0.19844 -0.58688,0 -2.64527,-1.78109 -3.32298,-2.87533 -2.29053,-3.69829 -3.07785,-10.88145 -3.07785,-28.08092 0,-22.09929 1.25641,-28.2892 6.23087,-30.6973 4.0075,-1.93999 13.76995,-1.63925 19.69983,0.60688 4.62201,1.75074 8.77419,5.10317 10.21295,8.24583 1.42697,3.11691 1.7335,5.7037 1.05829,8.93083 -0.99114,4.73717 -3.21163,7.23238 -8.95163,10.05917 -4.20807,2.07236 -4.22882,2.50787 -0.20295,4.25834 6.20036,2.69593 8.09359,4.30125 9.23427,7.83 0.61397,1.89933 0.22215,12.80315 -0.55716,15.5048 -1.18052,4.09262 -3.62876,5.87216 -9.33857,6.78788 -2.4743,0.39683 -16.9172,0.50119 -18.69951,0.13511 z m 13.61807,-10.09233 c 2.51037,-1.0489 3.16213,-4.9463 1.31984,-7.89238 -1.45465,-2.32621 -3.57996,-3.46091 -5.31599,-2.83822 -1.04241,0.37389 -2.0404,1.27943 -2.26073,2.0513 -0.83567,2.92748 -0.70833,4.95429 0.4328,6.8886 1.10148,1.86712 3.71672,2.6712 5.82408,1.7907 z m -0.93676,-34.46987 c 0.97995,-0.64209 1.57593,-1.69036 1.76939,-3.11217 0.23689,-1.74097 -0.12107,-2.60161 -1.42419,-3.42424 -0.82169,-0.51871 -1.4103,-0.67104 -2.58997,-0.67027 -2.01833,10e-4 -3.02891,0.61099 -3.47375,2.09574 -0.65981,2.20224 0.65301,5.20195 2.47631,5.65822 0.79686,0.1994 2.55575,-0.0975 3.24221,-0.54728 z m 28.50779,44.52966 c -5.15901,-1.00627 -7.66281,-3.38591 -9.4068,-8.94031 -1.0547,-3.35915 -1.82836,-10.91147 -1.82279,-17.7939 0.004,-4.83983 0.26472,-6.52351 1.38013,-8.90985 2.25293,-4.81998 8.09953,-7.7371 15.538,-7.75257 7.94839,-0.0165 11.56484,3.48946 13.23008,12.82596 0.48167,2.70056 0.6526,12.20972 0.26159,14.55209 -0.18218,1.0914 -0.42135,2.52015 -0.53147,3.175 -0.43764,2.60248 -1.04327,4.34272 -2.84432,8.17301 -0.23197,0.49332 -1.02575,1.51559 -1.76396,2.27171 -1.23023,1.26008 -1.7701,1.6009 -3.9326,2.48269 -0.95611,0.38987 -7.97784,0.33163 -10.10786,-0.0838 z m 5.72885,-15.00836 c 1.0868,-1.23281 1.61109,-3.72118 1.27835,-6.0673 -0.33532,-2.36433 -0.67947,-3.09443 -1.82081,-3.86273 -1.00645,-0.67751 -2.09099,-0.75967 -3.4666,-0.26261 -2.47875,0.89565 -2.91042,1.61056 -2.91042,4.82008 0,3.43645 0.93164,5.74056 2.45472,6.071 2.36816,0.51379 3.56053,0.32726 4.46476,-0.69844 z m 22.31698,15.02606 c -3.37584,-1.29616 -4.95277,-3.97744 -5.69673,-9.68628 -0.54413,-4.17534 -0.14707,-17.21107 0.91816,-30.14403 0.23289,-2.8275 0.33178,-5.22721 0.21975,-5.3327 -0.11202,-0.10548 -5.3829,-0.32465 -11.71305,-0.48703 -12.14202,-0.31147 -13.43438,-0.44771 -17.27699,-1.82138 -3.23118,-1.15509 -5.44863,-3.44266 -5.68096,-5.86059 -0.44934,-4.67636 2.34472,-7.88847 8.03181,-9.23351 3.91011,-0.92478 7.46858,-1.09576 22.80477,-1.09576 14.20539,0 17.88198,0.15758 19.17142,0.8217 0.25269,0.13015 0.6423,0.23663 0.86581,0.23663 0.22351,0 0.92326,0.47645 1.55501,1.05877 1.47764,1.36205 2.00184,2.97629 2.08342,6.4158 0.0592,2.49535 0.21644,3.08344 0.56595,2.11658 0.37974,-1.05047 2.01228,-3.49247 3.18727,-4.7676 0.93484,-1.01451 4.16025,-3.50063 4.54161,-3.50063 0.075,0 0.75385,-0.28465 1.50868,-0.63256 3.30064,-1.52131 7.64356,-2.10807 10.81107,-1.46065 2.52632,0.51636 4.2765,1.10558 6.03336,2.03122 2.20612,1.16235 3.21967,1.92224 5.0883,3.81488 2.09245,2.11932 3.09682,3.76026 4.47171,7.30591 0.12962,0.33427 0.23451,1.46536 0.23309,2.51354 -0.004,3.13797 -1.47806,5.54106 -4.17611,6.80929 -1.52361,0.71619 -4.61393,0.80273 -5.95417,0.16675 -1.22096,-0.57939 -2.54617,-2.09455 -3.44958,-3.94403 -1.05026,-2.15015 -2.07911,-3.1106 -3.33212,-3.1106 -2.11259,0 -3.3976,1.64874 -3.43822,4.41147 -0.0299,2.03146 0.57799,2.58852 5.47506,5.01741 7.06648,3.50489 9.75849,5.5618 12.17763,9.30468 1.93551,2.9946 2.70009,5.96871 2.70009,10.5029 0,3.50226 -0.16661,4.56586 -1.24322,7.93634 -2.30064,7.20251 -8.57677,10.95947 -18.33604,10.97617 -4.667,0.008 -7.47988,-0.71948 -10.58324,-2.73704 -1.7098,-1.11158 -2.81567,-2.20096 -4.01962,-3.95969 -2.66507,-3.89311 -3.40582,-7.73517 -2.49139,-12.92205 0.87492,-4.96279 3.28734,-7.02641 7.53165,-6.44267 2.52991,0.34795 4.04816,1.9993 4.91449,5.34534 1.12946,4.36233 1.75923,5.21265 3.86057,5.21265 2.49516,0 4.04965,-1.98463 4.63768,-5.92098 0.32227,-2.15737 0.31557,-2.5414 -0.0608,-3.48199 -0.59928,-1.49775 -2.3723,-2.47319 -7.09656,-3.90424 -0.95991,-0.29078 -1.96293,-0.65955 -3.83645,-1.41054 -0.64431,-0.25826 -1.72722,-0.79682 -2.7584,-1.37182 -2.7039,-1.50771 -5.4975,-5.11597 -6.56029,-8.47335 -0.5107,-1.61332 -0.98961,-5.0905 -0.99477,-7.2227 -0.004,-1.71579 -0.0864,-2.18281 -0.38434,-2.18281 -0.20847,0 -0.45364,0.23503 -0.54481,0.52229 -0.31141,0.98116 -3.22278,2.65271 -4.62028,2.65271 -0.78598,0 -1.75688,0.85441 -1.47999,1.30242 0.0943,0.15258 0.28106,0.90422 0.41503,1.67031 0.13396,0.7661 0.43004,2.22633 0.65795,3.24498 0.69839,3.12145 0.97732,4.44783 1.19626,5.68854 0.11555,0.65485 0.40737,2.26219 0.64848,3.57188 1.10217,5.98694 1.55544,11.65259 1.37017,17.12655 -0.0824,2.43461 -0.28378,4.93493 -0.44753,5.55626 -0.96579,3.66477 -1.24571,4.3452 -2.31506,5.62761 -0.80096,0.96053 -1.98024,1.75492 -3.25121,2.19006 -1.16143,0.39764 -4.85501,0.37 -5.93434,-0.0444 z m -72.325,-65.38407 c -4.8779,-1.36753 -5.73022,-4.75589 -5.72287,-22.751179 0.006,-15.15379 0.572,-18.76757 3.30462,-21.1066 1.23346,-1.0558 2.57741,-1.46547 5.56281,-1.69568 5.40712,-0.41697 9.57486,1.775 13.92589,7.32416 0.74166,0.94588 1.66133,2.25557 2.04371,2.91042 1.02,1.74679 3.0723,6.04657 3.0723,6.43679 0,0.18509 0.10751,0.44965 0.23891,0.58789 0.1314,0.13825 0.54811,1.48936 0.92604,3.00247 0.59866,2.39689 0.68713,3.30441 0.68713,7.04837 0,7.28626 -1.22508,12.013749 -3.87269,14.944329 -1.12175,1.24165 -3.65224,2.54991 -5.97061,3.08682 -2.52292,0.58427 -12.34441,0.7311 -14.19524,0.21221 z m 8.12198,-14.063379 c 2.4759,-0.61099 4.81287,-3.5818 4.79825,-6.09961 -0.0178,-3.06307 -4.07751,-6.67264 -6.7503,-6.00181 -1.30233,0.32687 -1.56774,1.37354 -1.57305,6.20368 -0.004,3.78185 0.0603,4.47689 0.47343,5.10747 0.51218,0.78169 1.41471,1.27098 1.99333,1.08064 0.19542,-0.0643 0.67167,-0.19495 1.05834,-0.29037 z m 26.4999,14.286029 c -1.38608,-0.22037 -3.79789,-1.22495 -4.55858,-1.89877 -3.75568,-3.32679 -4.78065,-9.754769 -4.81604,-30.203179 -0.0172,-9.94173 0.008,-10.50262 0.51107,-11.50938 0.78253,-1.56505 2.07168,-2.11954 4.8948,-2.10537 2.68302,0.0135 3.73181,0.46336 4.4582,1.91239 0.44167,0.88106 0.51327,1.93597 0.66854,9.85028 0.29714,15.14535 0.67752,17.2394 2.97698,16.38876 1.27001,-0.46981 1.60175,-3.33463 1.84646,-15.94594 0.17527,-9.0325 0.21014,-9.51793 0.74017,-10.30444 0.84577,-1.25504 2.06699,-1.8396 4.08158,-1.95373 2.61813,-0.14833 4.19357,0.48357 4.98946,2.00123 0.60922,1.1617 0.61152,1.20584 0.61152,11.70241 0,24.73631 -1.44737,30.175449 -8.47024,31.830649 -1.58116,0.37266 -6.20657,0.50971 -7.93392,0.23509 z m 24.12258,-0.2536 c -3.62075,-0.98305 -5.41467,-3.43136 -6.14286,-8.383659 -0.28091,-1.91042 -0.28087,-2.65209 2.5e-4,-4.10104 0.44131,-2.27467 1.33174,-4.16864 2.67994,-5.70029 1.50859,-1.71384 2.94096,-2.28628 5.72081,-2.28628 2.97818,0 7.17539,-0.50396 8.09296,-0.97172 0.40661,-0.20729 0.98033,-0.75806 1.27491,-1.22394 0.58061,-0.9182 0.58004,-0.79188 0.0691,-15.3122 -0.15949,-4.53222 -0.14662,-4.70074 0.41972,-5.4961 0.93884,-1.31848 2.48555,-1.98216 4.64074,-1.9913 2.26106,-0.01 3.4584,0.59047 4.23333,2.1216 0.51518,1.01788 0.52917,1.57044 0.52917,20.88929 0,19.367899 -0.0127,19.865299 -0.52917,20.742139 -0.94113,1.59779 -1.75665,2.0009 -4.25988,2.10563 -2.01189,0.0842 -2.38758,0.02 -3.73177,-0.63767 -1.40902,-0.68937 -1.56398,-0.71165 -2.70463,-0.38872 -3.89607,1.10299 -7.70225,1.33754 -10.29259,0.63426 z m 5.80128,-7.288469 c 1.36704,-0.76832 2.04615,-2.40927 1.60561,-3.87967 -0.52677,-1.75821 -3.22696,-2.71603 -5.1551,-1.82864 -0.40233,0.18516 -0.95423,0.8138 -1.25395,1.42831 -0.46861,0.96076 -0.49763,1.24732 -0.23287,2.29881 0.33247,1.32035 0.76902,1.8166 1.96765,2.23673 1.2277,0.43033 1.95627,0.36966 3.06866,-0.25554 z m 22.7822,7.293009 c -3.80608,-0.93552 -5.02617,-3.85707 -5.5949,-13.397179 -0.72553,-12.17029 0.0114,-24.99254 1.63508,-28.45097 0.71968,-1.53288 2.32297,-2.84882 3.99532,-3.27926 1.94879,-0.50159 27.63801,-0.50361 30.86677,-0.002 4.77798,0.74166 6.46433,2.36223 6.29593,6.05038 -0.0732,1.60345 -0.21058,2.07752 -0.87627,3.02401 -2.08115,2.95904 -7.02613,3.75591 -19.52603,3.1466 -8.13118,-0.39635 -9.60812,-0.28881 -10.75569,0.78318 -0.70288,0.65658 -0.80252,0.92787 -0.80252,2.18489 0,2.37911 1.09785,2.98197 5.82083,3.19639 4.4853,0.20364 4.90472,0.61568 4.87723,4.79146 -0.0186,2.82339 -0.29986,3.75722 -1.44125,4.78504 -0.52704,0.47461 -0.96065,0.52855 -4.2488,0.52855 -4.18565,0 -4.38119,0.0842 -4.62242,1.99068 -0.11467,0.90624 -0.0279,1.37841 0.36961,2.01094 0.50841,0.80903 0.57489,0.83055 3.12328,1.01118 3.21585,0.22793 4.47386,0.53794 5.58065,1.37526 1.45663,1.10199 1.76175,1.99096 1.7744,5.169879 0.0111,2.77831 -0.002,2.84069 -0.77181,3.64424 -1.30226,1.35961 -2.78185,1.65706 -8.74193,1.75747 -4.12143,0.0694 -5.66006,-0.001 -6.95748,-0.32031 z m 23.58177,-0.34073 c -2.31374,-0.59518 -4.12805,-2.39114 -4.88244,-4.83309 -0.52034,-1.684339 -1.00336,-6.723969 -1.01016,-10.539479 -0.0165,-9.25961 1.82807,-13.27911 6.61115,-14.40648 2.91324,-0.68665 7.93694,-0.30789 9.98864,0.75308 2.04283,1.05639 2.96435,3.0761 2.96183,6.49152 -0.002,2.49523 -0.29941,3.59104 -1.30682,4.81226 -1.13098,1.37103 -3.07847,2.17907 -6.6292,2.75055 -2.81004,0.45227 -4.23333,1.59463 -4.23333,3.39778 0,1.83773 0.91741,2.81587 2.64105,2.81587 1.26372,0 2.18806,-0.49274 3.50456,-1.86818 1.16895,-1.22128 1.33649,-1.30682 2.55939,-1.30682 2.28446,0 3.46079,1.54532 3.46435,4.55104 0.004,3.371359 -1.27445,5.560789 -3.95435,6.772069 -1.30246,0.58869 -1.88612,0.67271 -5.17229,0.74453 -2.0373,0.0445 -4.08136,-0.0161 -4.54238,-0.13465 z m 5.85029,-20.723119 c 0.54935,-0.7843 0.52277,-2.39265 -0.0511,-3.09486 -0.6986,-0.85477 -2.14939,-0.9933 -3.04279,-0.29054 -0.94904,0.74651 -1.02537,2.43167 -0.15224,3.36108 0.8004,0.85198 2.65671,0.86589 3.24617,0.0243 z m -62.82154,-1.1979 c -1.09376,-0.99466 -1.31217,-2.28332 -1.49103,-8.79739 -0.10948,-3.98718 -0.0435,-6.30511 0.24895,-8.75037 0.60806,-5.08356 1.30761,-6.08973 3.95765,-5.69233 1.65657,0.24841 2.5741,1.00782 2.5741,2.13047 0,1.27325 0.58908,1.33037 1.62583,0.15763 1.15544,-1.30701 2.46388,-1.74728 3.90742,-1.31478 1.78411,0.53453 2.71244,1.66192 3.33424,4.04917 0.51021,1.95884 0.55341,13.69088 0.0571,15.50563 -0.58652,2.14455 -0.71735,2.2491 -2.81277,2.24774 -2.83317,-0.002 -2.77786,0.11462 -2.93681,-6.18497 -0.14353,-5.68842 -0.25474,-6.11694 -1.5875,-6.11694 -1.34685,0 -1.44405,0.39807 -1.5875,6.50133 -0.12943,5.50644 -0.14619,5.64311 -0.77373,6.31038 -0.54653,0.58113 -0.86885,0.68204 -2.17864,0.68204 -1.3066,0 -1.65723,-0.10916 -2.3373,-0.72761 z"
       id="path847" />
  </g>
</svg>
