<?xml version="1.0" encoding="UTF-8" standalone="no"?>
<!-- Generator: Adobe Illustrator 25.3.1, SVG Export Plug-In . SVG Version: 6.00 Build 0)  -->

<svg
   version="1.1"
   id="Layer_1"
   x="0px"
   y="0px"
   viewBox="0 0 448 512"
   style="enable-background:new 0 0 448 512;"
   xml:space="preserve"
   sodipodi:docname="paperclip.svg"
   inkscape:version="1.1.2 (b8e25be8, 2022-02-05)"
   xmlns:inkscape="http://www.inkscape.org/namespaces/inkscape"
   xmlns:sodipodi="http://sodipodi.sourceforge.net/DTD/sodipodi-0.dtd"
   xmlns="http://www.w3.org/2000/svg"
   xmlns:svg="http://www.w3.org/2000/svg"><defs
   id="defs831" /><sodipodi:namedview
   id="namedview829"
   pagecolor="#ffffff"
   bordercolor="#666666"
   borderopacity="1.0"
   inkscape:pageshadow="2"
   inkscape:pageopacity="0.0"
   inkscape:pagecheckerboard="0"
   showgrid="false"
   inkscape:zoom="1.4296875"
   inkscape:cx="224.17486"
   inkscape:cy="256"
   inkscape:window-width="1312"
   inkscape:window-height="912"
   inkscape:window-x="237"
   inkscape:window-y="29"
   inkscape:window-maximized="0"
   inkscape:current-layer="Layer_1" />
<style
   type="text/css"
   id="style824">
	.st0{fill:#76B82A;}
</style>
<path
   class="st0"
   d="M364.2,83.8c-24.4-24.4-64-24.4-88.4,0l-184,184c-42.1,42.1-42.1,110.3,0,152.4c42.1,42.1,110.3,42.1,152.4,0  l152-152c10.9-10.9,28.7-10.9,39.6,0c10.9,10.9,10.9,28.7,0,39.6l-152,152c-64,64-167.6,64-231.6,0c-64-64-64-167.6,0-231.6l184-184  c46.3-46.3,121.3-46.3,167.6,0s46.3,121.3,0,167.6l-176,176c-28.6,28.6-75,28.6-103.6,0c-28.6-28.6-28.6-75,0-103.6l144-144  c10.9-10.9,28.7-10.9,39.6,0c10.9,10.9,10.9,28.7,0,39.6l-144,144c-6.7,6.7-6.7,17.7,0,24.4c6.7,6.7,17.7,6.7,24.4,0l176-176  C388.6,147.8,388.6,108.2,364.2,83.8L364.2,83.8z"
   id="path826"
   style="fill:#64bcbc;fill-opacity:1" />
</svg>
